<svg xmlns="http://www.w3.org/2000/svg" xmlns:xlink="http://www.w3.org/1999/xlink" width="500" zoomAndPan="magnify" viewBox="0 0 375 374.999991" height="500" preserveAspectRatio="xMidYMid meet" version="1.0"><path stroke-linecap="round" transform="matrix(0, 0.75, -0.75, 0, 189.744573, 73.44726)" fill="none" stroke-linejoin="miter" d="M 2.997404 2.997972 L 301.153673 2.997972 " stroke="#000000" stroke-width="6" stroke-opacity="1" stroke-miterlimit="4"/><path stroke-linecap="round" transform="matrix(0.75, 0, 0, 0.75, 132.013971, 193.485926)" fill="none" stroke-linejoin="miter" d="M 3.002205 141.0969 L 3.002205 26.997934 C 3.002205 13.742725 13.746998 2.997933 27.002207 2.997933 L 69.465752 2.997933 " stroke="#000000" stroke-width="6" stroke-opacity="1" stroke-miterlimit="4"/><path stroke-linecap="round" transform="matrix(0.75, 0, 0, 0.75, 142.872242, 251.703382)" fill="none" stroke-linejoin="miter" d="M 2.998469 2.999658 L 54.988056 2.999658 " stroke="#000000" stroke-width="6" stroke-opacity="1" stroke-miterlimit="4"/><path stroke-linecap="round" transform="matrix(0.75, 0, 0, 0.75, 133.138971, 73.830463)" fill="none" stroke-linejoin="miter" d="M 57.856376 141.882308 L 25.502207 141.882308 C 12.246998 141.882308 1.502205 131.137516 1.502205 117.882307 L 1.502205 25.502092 C 1.502205 12.246883 12.246998 1.502091 25.502207 1.502091 L 59.356376 1.502091 " stroke="#000000" stroke-width="3" stroke-opacity="1" stroke-miterlimit="4"/><path stroke-linecap="round" transform="matrix(-0.00410568, 0.75854, -0.75854, -0.00410568, 244.863226, 194.030378)" fill="none" stroke-linejoin="miter" d="M 1.497534 1.500682 L 139.55568 1.500133 " stroke="#000000" stroke-width="3" stroke-opacity="1" stroke-miterlimit="4"/><path stroke-linecap="round" transform="matrix(0.353479, 0.671157, -0.671157, 0.353479, 188.374679, 193.496003)" fill="none" stroke-linejoin="miter" d="M 1.498176 1.498629 L 157.93755 1.500453 " stroke="#000000" stroke-width="3" stroke-opacity="1" stroke-miterlimit="4"/><path stroke-linecap="round" transform="matrix(0.506814, 0.552846, -0.552846, 0.506814, 196.729518, 124.410577)" fill="none" stroke-linejoin="miter" d="M 2.998858 3.001807 L 95.249033 3.001444 " stroke="#000000" stroke-width="6" stroke-opacity="1" stroke-miterlimit="4"/><path stroke-linecap="round" transform="matrix(0.75, 0, 0, 0.75, 185.224958, 73.569252)" fill="none" stroke-linejoin="miter" d="M 15.741724 71.949335 L 47.049018 71.949335 C 64.340685 71.949335 78.36152 57.93371 78.36152 40.642042 L 78.36152 37.475375 C 78.36152 28.329541 74.726103 19.563915 68.262561 13.095165 C 61.79381 6.631623 53.028185 3.001414 43.882351 3.001414 L 4.934431 3.001414 C 4.418806 3.001414 3.929223 3.204539 3.56464 3.563914 C 3.205265 3.928498 3.00214 4.423289 3.00214 4.933706 L 3.00214 6.865998 " stroke="#000000" stroke-width="6" stroke-opacity="1" stroke-miterlimit="4"/></svg>