<svg xmlns="http://www.w3.org/2000/svg" xmlns:xlink="http://www.w3.org/1999/xlink" width="500" zoomAndPan="magnify" viewBox="0 0 375 374.999991" height="500" preserveAspectRatio="xMidYMid meet" version="1.0"><path stroke-linecap="round" transform="matrix(0, 0.75, -0.75, 0, 189.744573, 73.44726)" fill="none" stroke-linejoin="miter" d="M 2.997404 2.997972 L 301.153673 2.997972 " stroke="#ffffff" stroke-width="6" stroke-opacity="1" stroke-miterlimit="4"/><path stroke-linecap="round" transform="matrix(0.75, 0, 0, 0.75, 132.013971, 193.485866)" fill="none" stroke-linejoin="miter" d="M 3.002205 141.09698 L 3.002205 26.998014 C 3.002205 13.742805 13.746998 2.998013 27.002207 2.998013 L 69.465752 2.998013 " stroke="#ffffff" stroke-width="6" stroke-opacity="1" stroke-miterlimit="4"/><path stroke-linecap="round" transform="matrix(0.75, 0, 0, 0.75, 142.872242, 251.703382)" fill="none" stroke-linejoin="miter" d="M 2.998469 2.999658 L 54.988056 2.999658 " stroke="#ffffff" stroke-width="6" stroke-opacity="1" stroke-miterlimit="4"/><path stroke-linecap="round" transform="matrix(0.75, 0, 0, 0.75, 133.138971, 73.830406)" fill="none" stroke-linejoin="miter" d="M 57.856376 141.882385 L 25.502207 141.882385 C 12.246998 141.882385 1.502205 131.137593 1.502205 117.882384 L 1.502205 25.502169 C 1.502205 12.24696 12.246998 1.502168 25.502207 1.502168 L 59.356376 1.502168 " stroke="#ffffff" stroke-width="3" stroke-opacity="1" stroke-miterlimit="4"/><path stroke-linecap="round" transform="matrix(-0.00410568, 0.75854, -0.75854, -0.00410568, 244.863226, 194.030378)" fill="none" stroke-linejoin="miter" d="M 1.497534 1.500682 L 139.55568 1.500133 " stroke="#ffffff" stroke-width="3" stroke-opacity="1" stroke-miterlimit="4"/><path stroke-linecap="round" transform="matrix(0.353479, 0.671157, -0.671157, 0.353479, 188.374679, 193.496061)" fill="none" stroke-linejoin="miter" d="M 1.498109 1.498594 L 157.937483 1.500418 " stroke="#ffffff" stroke-width="3" stroke-opacity="1" stroke-miterlimit="4"/><path stroke-linecap="round" transform="matrix(0.506814, 0.552846, -0.552846, 0.506814, 196.729518, 124.41052)" fill="none" stroke-linejoin="miter" d="M 2.998914 3.001858 L 95.24909 3.001496 " stroke="#ffffff" stroke-width="6" stroke-opacity="1" stroke-miterlimit="4"/><path stroke-linecap="round" transform="matrix(0.75, 0, 0, 0.75, 185.224958, 73.569312)" fill="none" stroke-linejoin="miter" d="M 15.741724 71.949255 L 47.049018 71.949255 C 64.340685 71.949255 78.36152 57.93363 78.36152 40.641962 L 78.36152 37.475295 C 78.36152 28.329461 74.726103 19.563835 68.262561 13.095085 C 61.79381 6.631543 53.028185 3.001334 43.882351 3.001334 L 4.934431 3.001334 C 4.418806 3.001334 3.929223 3.204459 3.56464 3.569043 C 3.205265 3.928418 3.00214 4.423209 3.00214 4.933626 L 3.00214 6.865918 " stroke="#ffffff" stroke-width="6" stroke-opacity="1" stroke-miterlimit="4"/></svg>